#!OML:ASF X:\für Bonn\!DataBase\2005_08_11_Bastian_Final\c3d\Bastian.ASF
:FULLY-SPECIFIED
:DEGREES
50
root -1.31674 13.5064 2.11094 166.259 -5.5387 -172.651
lowerback 25.8375 -1.20753 4.19668
upperback 7.11198 -1.98909 1.5706
thorax -6.46184 -1.67373 0.00103528
lowerneck -10.0396 -5.56215 -5.23059
upperneck -5.02921 -7.58201 11.7257
head 0.874793 -3.93407 4.49619
rclavicle 5.86415e-015 -2.38542e-015
rhumerus 71.5628 14.8173 12.9712
rradius 38.5443
rwrist -61.6145
rhand -47.5539 -9.00244
rfingers 7.12502
rthumb -20.2397 -37.968
lclavicle 5.86415e-015 -2.38542e-015
lhumerus 74.9452 -19.238 -40.0588
lradius 31.4339
lwrist 32.842
lhand -44.6114 24.2528
lfingers 7.12502
lthumb -17.4097 53.4932
rfemur -28.6104 -8.04064 28.6691
rtibia 90.8305
rfoot -41.0728 -5.15026
rtoes -0.820344
lfemur -30.5593 1.27816 -11.4373
ltibia 95.2524
lfoot -38.9248 -10.5401
ltoes -7.30902
51
root -1.31514 13.3004 2.10785 166.135 -5.50031 -172.424
lowerback 26.0371 -1.21944 4.41186
upperback 7.12099 -1.9511 1.67484
thorax -6.54813 -1.66677 -0.0108775
lowerneck -10.0093 -5.55094 -5.16125
upperneck -5.14972 -7.57491 11.7114
head 0.824736 -3.93937 4.48032
rclavicle 6.95746e-016 -2.90226e-014
rhumerus 71.3838 14.5952 12.54
rradius 38.4437
rwrist -61.2715
rhand -47.4838 -8.99992
rfingers 7.12502
rthumb -20.1723 -37.9726
lclavicle 6.95746e-016 -2.90226e-014
lhumerus 74.7903 -19.0123 -39.9514
lradius 31.4223
lwrist 32.9572
lhand -44.6714 24.288
lfingers 7.12502
lthumb -17.4674 53.5232
rfemur -29.673 -8.09994 29.0234
rtibia 93.0831
rfoot -41.749 -5.44256
rtoes -0.833605
lfemur -31.7481 1.24171 -11.178
ltibia 97.7579
lfoot -39.5726 -10.5002
ltoes -7.78614
52
root -1.31392 13.0916 2.10399 166.014 -5.45716 -172.223
lowerback 26.2069 -1.21865 4.60219
upperback 7.15042 -1.90847 1.77001
thorax -6.59634 -1.65824 -0.0217669
lowerneck -10.039 -5.55065 -5.05434
upperneck -5.25255 -7.58656 11.6583
head 0.788981 -3.95312 4.44016
rclavicle 1.09332e-014 -1.70955e-014
rhumerus 71.2079 14.3739 12.208
rradius 38.3765
rwrist -61.1069
rhand -47.4863 -8.90313
rfingers 7.12502
rthumb -20.1748 -37.8755
lclavicle 1.09332e-014 -1.70955e-014
lhumerus 74.6581 -18.7922 -39.9537
lradius 31.4412
lwrist 33.1047
lhand -44.7698 24.3614
lfingers 7.12502
lthumb -17.5621 53.5881
rfemur -30.7268 -8.12633 29.3564
rtibia 95.3466
rfoot -42.417 -5.71499
rtoes -0.879765
lfemur -32.939 1.2073 -10.9553
ltibia 100.271
lfoot -40.2495 -10.3397
ltoes -8.71442
53
root -1.31301 12.8794 2.10067 165.885 -5.42527 -172.068
lowerback 26.4074 -1.22003 4.75739
upperback 7.16738 -1.87364 1.84273
thorax -6.67386 -1.65252 -0.0332849
lowerneck -10.0333 -5.54221 -4.96138
upperneck -5.35403 -7.58695 11.6414
head 0.749085 -3.96169 4.4175
rclavicle -3.97569e-014 4.45278e-014
rhumerus 71.0227 14.1537 11.7332
rradius 38.2915
rwrist -60.9019
rhand -47.4349 -8.84019
rfingers 7.12502
rthumb -20.1254 -37.8178
lclavicle -3.97569e-014 4.45278e-014
lhumerus 74.5522 -18.6126 -40.0095
lradius 31.4882
lwrist 33.2671
lhand -44.8552 24.4052
lfingers 7.12502
lthumb -17.6443 53.6246
rfemur -31.7721 -8.15329 29.6443
rtibia 97.6238
rfoot -43.0255 -6.05759
rtoes -1.11217
lfemur -34.1247 1.1598 -10.7969
ltibia 102.781
lfoot -40.8604 -10.1419
ltoes -9.74709
54
root -1.31219 12.6613 2.09753 165.765 -5.36633 -171.867
lowerback 26.5849 -1.21586 4.95098
upperback 7.1939 -1.82445 1.92745
thorax -6.72837 -1.64111 -0.0591988
lowerneck -10.0362 -5.52892 -4.79946
upperneck -5.4883 -7.58727 11.567
head 0.693609 -3.97336 4.36111
rclavicle 2.95195e-014 9.93923e-015
rhumerus 70.8496 13.9659 11.201
rradius 38.1603
rwrist -60.636
rhand -47.3847 -8.67795
rfingers 7.12502
rthumb -20.0771 -37.6606
lclavicle 2.95195e-014 9.93923e-015
lhumerus 74.4009 -18.3812 -39.9975
lradius 31.5334
lwrist 33.3626
lhand -44.8757 24.3872
lfingers 7.12502
lthumb -17.664 53.6049
rfemur -32.838 -8.1377 30.0036
rtibia 99.9136
rfoot -43.6089 -6.39375
rtoes -1.20798
lfemur -35.3122 1.17511 -10.5589
ltibia 105.282
lfoot -41.4216 -10.0484
ltoes -10.5773
55
root -1.31205 12.4381 2.09646 165.665 -5.32311 -171.706
lowerback 26.8068 -1.21383 5.10849
upperback 7.19128 -1.77751 1.99949
thorax -6.83723 -1.62909 -0.0752413
lowerneck -10.0518 -5.52655 -4.68408
upperneck -5.57527 -7.59839 11.5318
head 0.661288 -3.98681 4.32627
rclavicle -7.35503e-015 -3.97569e-015
rhumerus 70.6885 13.7719 10.8769
rradius 38.0936
rwrist -60.5298
rhand -47.3149 -8.67167
rfingers 7.12502
rthumb -20.01 -37.6614
lclavicle -7.35503e-015 -3.97569e-015
lhumerus 74.2783 -18.2081 -39.7945
lradius 31.4975
lwrist 33.2166
lhand -44.9077 24.3865
lfingers 7.12502
lthumb -17.6949 53.6013
rfemur -33.9639 -8.1156 30.3245
rtibia 102.232
rfoot -44.1498 -6.72565
rtoes -1.37781
lfemur -36.5074 1.28788 -10.3572
ltibia 107.757
lfoot -41.9718 -9.97202
ltoes -11.4497
56
root -1.31214 12.22 2.0958 165.552 -5.26909 -171.554
lowerback 27.0489 -1.20874 5.24908
upperback 7.20492 -1.73522 2.07176
thorax -6.9373 -1.6214 -0.0795477
lowerneck -10.073 -5.50838 -4.55918
upperneck -5.71315 -7.59022 11.4849
head 0.610404 -3.99415 4.28738
rclavicle 1.799e-014 -3.02153e-014
rhumerus 70.5632 13.5368 10.7854
rradius 38.0998
rwrist -60.6405
rhand -47.2876 -8.69139
rfingers 7.12502
rthumb -19.9837 -37.6838
lclavicle 1.799e-014 -3.02153e-014
lhumerus 74.0676 -18.0183 -39.5037
lradius 31.4792
lwrist 32.9918
lhand -44.9181 24.325
lfingers 7.12502
lthumb -17.7049 53.5389
rfemur -35.0236 -8.08038 30.6412
rtibia 104.504
rfoot -44.6571 -7.10406
rtoes -1.62384
lfemur -37.6155 1.48874 -10.1328
ltibia 110.153
lfoot -42.5909 -9.96941
ltoes -12.1715
57
root -1.3127 12.001 2.09614 165.425 -5.20033 -171.348
lowerback 27.325 -1.21722 5.46185
upperback 7.20464 -1.68668 2.13973
thorax -7.06967 -1.61184 -0.130076
lowerneck -10.0986 -5.49299 -4.42628
upperneck -5.8169 -7.58855 11.4667
head 0.573351 -4.00346 4.25623
rclavicle -3.37934e-015 -3.18055e-014
rhumerus 70.4477 13.3106 11.1358
rradius 38.2669
rwrist -61.1731
rhand -47.3654 -8.78421
rfingers 7.12502
rthumb -20.0586 -37.7688
lclavicle -3.37934e-015 -3.18055e-014
lhumerus 73.8948 -17.8305 -39.2071
lradius 31.4408
lwrist 32.723
lhand -44.9186 24.2322
lfingers 7.12502
lthumb -17.7053 53.4461
rfemur -36.0756 -8.05965 31.02
rtibia 106.751
rfoot -45.1407 -7.40127
rtoes -1.73304
lfemur -38.7076 1.76796 -9.82205
ltibia 112.532
lfoot -43.294 -9.93261
ltoes -13.2687
